HIERARCHY
ROOT Hips
{
  OFFSET 0.0 0.0 0.0
  CHANNELS 6 Xposition Yposition Zposition Zrotation Xrotation Yrotation
  JOINT Chest
  {
    OFFSET 0.0 10.0 0.0
    CHANNELS 3 Zrotation Xrotation Yrotation
    JOINT Head
    {
      OFFSET 0.0 10.0 0.0
      CHANNELS 3 Zrotation Xrotation Yrotation
      End Site
      {
        OFFSET 0.0 5.0 0.0
      }
    }
  }
}
MOTION
Frames: 2
Frame Time: 0.0333333
0 0 0 0 0 0 0 0 0 0 0 0
0 0 0 5 3 2 1 2 3 4 1 2
